<svg viewBox="0 0 400 240" fill="none" xmlns="http://www.w3.org/2000/svg">
  <!-- Background -->
  <rect width="400" height="240" fill="#FAFAF8"/>

  <!-- Top header bar -->
  <rect x="0" y="0" width="400" height="38" fill="#111111" fill-opacity="0.04"/>
  <text x="22" y="24" font-family="Georgia, serif" font-size="9" fill="#111111" opacity="0.55" letter-spacing="2">JOB TRACKER</text>
  <!-- Live badge -->
  <rect x="337" y="10" width="42" height="18" rx="9" fill="#8B1A2B" opacity="0.85"/>
  <circle cx="347" cy="19" r="3" fill="#FAFAF8" opacity="0.85"/>
  <text x="372" y="23" text-anchor="end" font-family="Georgia, serif" font-size="8" fill="#FAFAF8" opacity="0.9">live</text>

  <!-- Stats row -->
  <rect x="22" y="46" width="82" height="30" rx="5" fill="white" stroke="#111111" stroke-opacity="0.08" stroke-width="0.8"/>
  <text x="63" y="57" text-anchor="middle" font-family="Georgia, serif" font-size="9" fill="#111111" opacity="0.45" letter-spacing="1">TOTAL</text>
  <text x="63" y="70" text-anchor="middle" font-family="Georgia, serif" font-size="13" fill="#111111" opacity="0.80" font-weight="bold">42</text>

  <rect x="112" y="46" width="82" height="30" rx="5" fill="white" stroke="#111111" stroke-opacity="0.08" stroke-width="0.8"/>
  <text x="153" y="57" text-anchor="middle" font-family="Georgia, serif" font-size="9" fill="#111111" opacity="0.45" letter-spacing="1">ACTIVE</text>
  <text x="153" y="70" text-anchor="middle" font-family="Georgia, serif" font-size="13" fill="#8B1A2B" opacity="0.80" font-weight="bold">8</text>

  <rect x="202" y="46" width="82" height="30" rx="5" fill="white" stroke="#111111" stroke-opacity="0.08" stroke-width="0.8"/>
  <text x="243" y="57" text-anchor="middle" font-family="Georgia, serif" font-size="9" fill="#111111" opacity="0.45" letter-spacing="1">OFFERS</text>
  <text x="243" y="70" text-anchor="middle" font-family="Georgia, serif" font-size="13" fill="#111111" opacity="0.80" font-weight="bold">2</text>

  <!-- Columns header row -->
  <rect x="22"  y="86" width="110" height="16" rx="3" fill="#111111" fill-opacity="0.05"/>
  <text x="31"  y="97.5" font-family="Georgia, serif" font-size="7.5" fill="#717580" letter-spacing="1.5">APPLIED</text>
  <text x="124" y="97.5" text-anchor="end" font-family="Georgia, serif" font-size="7.5" fill="#717580">28</text>

  <rect x="140" y="86" width="110" height="16" rx="3" fill="#111111" fill-opacity="0.05"/>
  <text x="149" y="97.5" font-family="Georgia, serif" font-size="7.5" fill="#717580" letter-spacing="1.5">INTERVIEW</text>
  <text x="242" y="97.5" text-anchor="end" font-family="Georgia, serif" font-size="7.5" fill="#717580">4</text>

  <rect x="258" y="86" width="120" height="16" rx="3" fill="#111111" fill-opacity="0.05"/>
  <text x="267" y="97.5" font-family="Georgia, serif" font-size="7.5" fill="#717580" letter-spacing="1.5">OFFER</text>
  <text x="370" y="97.5" text-anchor="end" font-family="Georgia, serif" font-size="7.5" fill="#717580">2</text>

  <!-- APPLIED cards -->
  <rect x="22" y="108" width="110" height="26" rx="4" fill="white" stroke="#111111" stroke-opacity="0.10" stroke-width="0.8"/>
  <text x="31" y="125" font-family="Georgia, serif" font-size="8" fill="#111111" opacity="0.75">Revolut · PM</text>

  <rect x="22" y="139" width="110" height="26" rx="4" fill="white" stroke="#111111" stroke-opacity="0.10" stroke-width="0.8"/>
  <text x="31" y="156" font-family="Georgia, serif" font-size="8" fill="#111111" opacity="0.75">Stripe · APM</text>

  <rect x="22" y="170" width="110" height="26" rx="4" fill="white" stroke="#111111" stroke-opacity="0.10" stroke-width="0.8"/>
  <text x="31" y="187" font-family="Georgia, serif" font-size="8" fill="#111111" opacity="0.75">Figma · Product</text>

  <rect x="22" y="201" width="110" height="22" rx="4" fill="white" stroke="#111111" stroke-opacity="0.07" stroke-width="0.8" opacity="0.6"/>
  <text x="31" y="216" font-family="Georgia, serif" font-size="7.5" fill="#111111" opacity="0.45">Linear · PM</text>

  <!-- INTERVIEW cards -->
  <!-- Active card with burgundy left accent -->
  <rect x="140" y="108" width="110" height="26" rx="4" fill="white" stroke="#111111" stroke-opacity="0.10" stroke-width="0.8"/>
  <rect x="140" y="108" width="3" height="26" rx="1.5" fill="#8B1A2B"/>
  <text x="149" y="118" font-family="Georgia, serif" font-size="8" fill="#111111" opacity="0.75">Notion · PM</text>
  <text x="242" y="118" text-anchor="end" font-family="Georgia, serif" font-size="7" fill="#8B1A2B">Round 2</text>
  <text x="149" y="129" font-family="Georgia, serif" font-size="7" fill="#717580">Case study due Thu</text>

  <rect x="140" y="139" width="110" height="26" rx="4" fill="white" stroke="#111111" stroke-opacity="0.10" stroke-width="0.8"/>
  <text x="149" y="156" font-family="Georgia, serif" font-size="8" fill="#111111" opacity="0.75">Anthropic · PM</text>
  <text x="242" y="156" text-anchor="end" font-family="Georgia, serif" font-size="7" fill="#717580">Round 1</text>

  <!-- OFFER cards -->
  <rect x="258" y="108" width="120" height="26" rx="4" fill="#F7ECEE" stroke="#8B1A2B" stroke-opacity="0.25" stroke-width="0.8"/>
  <text x="267" y="125" font-family="Georgia, serif" font-size="8" fill="#111111" opacity="0.85">Grab · Product Lead</text>
  <circle cx="368" cy="121" r="4" fill="#8B1A2B" opacity="0.65"/>

  <rect x="258" y="139" width="120" height="26" rx="4" fill="#F7ECEE" stroke="#8B1A2B" stroke-opacity="0.20" stroke-width="0.8"/>
  <text x="267" y="156" font-family="Georgia, serif" font-size="8" fill="#111111" opacity="0.75">Sequoia · VP PM</text>

  <!-- Column dividers -->
  <line x1="136" y1="86" x2="136" y2="232" stroke="#111111" stroke-opacity="0.07" stroke-width="0.8"/>
  <line x1="254" y1="86" x2="254" y2="232" stroke="#111111" stroke-opacity="0.07" stroke-width="0.8"/>
</svg>
