<svg viewBox="0 0 400 200" xmlns="http://www.w3.org/2000/svg">
  <!-- Background -->
  <rect width="400" height="200" fill="#F7ECEE"/>

  <!-- Subtle grid dots -->
  <pattern id="dots" x="0" y="0" width="20" height="20" patternUnits="userSpaceOnUse">
    <circle cx="10" cy="10" r="1" fill="#111111" opacity="0.06"/>
  </pattern>
  <rect width="400" height="200" fill="url(#dots)"/>

  <!-- Header -->
  <circle cx="26" cy="28" r="4" fill="#8B1A2B"/>
  <text x="36" y="32" font-family="Georgia, serif" font-size="8.5" fill="#8B1A2B" letter-spacing="1.5">INBOUND CALL</text>
  <text x="374" y="32" text-anchor="end" font-family="monospace" font-size="8.5" fill="#717580">03:42</text>

  <!-- Pulse rings behind waveform -->
  <ellipse cx="210" cy="105" rx="58" ry="48" fill="none" stroke="#8B1A2B" stroke-width="0.8" opacity="0.10"/>
  <ellipse cx="210" cy="105" rx="38" ry="32" fill="none" stroke="#8B1A2B" stroke-width="0.8" opacity="0.16"/>

  <!-- Waveform bars (center y=105, 20 bars, 8px wide, 13px step, starts x=73) -->
  <!-- heights: 10,16,22,32,42,50,60,68,64,60,72,70,62,60,50,42,32,22,16,10 -->
  <rect x="73"  y="100" width="8" height="10" rx="3" fill="#111111" opacity="0.13"/>
  <rect x="86"  y="97"  width="8" height="16" rx="3" fill="#111111" opacity="0.16"/>
  <rect x="99"  y="94"  width="8" height="22" rx="3" fill="#111111" opacity="0.18"/>
  <rect x="112" y="89"  width="8" height="32" rx="3" fill="#111111" opacity="0.20"/>
  <rect x="125" y="84"  width="8" height="42" rx="3" fill="#111111" opacity="0.22"/>
  <rect x="138" y="80"  width="8" height="50" rx="3" fill="#111111" opacity="0.25"/>
  <rect x="151" y="75"  width="8" height="60" rx="3" fill="#8B1A2B" opacity="0.40"/>
  <rect x="164" y="71"  width="8" height="68" rx="3" fill="#8B1A2B" opacity="0.55"/>
  <rect x="177" y="73"  width="8" height="64" rx="3" fill="#8B1A2B" opacity="0.62"/>
  <rect x="190" y="75"  width="8" height="60" rx="3" fill="#8B1A2B" opacity="0.50"/>
  <rect x="203" y="69"  width="8" height="72" rx="3" fill="#8B1A2B" opacity="0.72"/>
  <rect x="216" y="70"  width="8" height="70" rx="3" fill="#8B1A2B" opacity="0.65"/>
  <rect x="229" y="74"  width="8" height="62" rx="3" fill="#8B1A2B" opacity="0.55"/>
  <rect x="242" y="75"  width="8" height="60" rx="3" fill="#8B1A2B" opacity="0.45"/>
  <rect x="255" y="80"  width="8" height="50" rx="3" fill="#111111" opacity="0.25"/>
  <rect x="268" y="84"  width="8" height="42" rx="3" fill="#111111" opacity="0.22"/>
  <rect x="281" y="89"  width="8" height="32" rx="3" fill="#111111" opacity="0.20"/>
  <rect x="294" y="94"  width="8" height="22" rx="3" fill="#111111" opacity="0.18"/>
  <rect x="307" y="97"  width="8" height="16" rx="3" fill="#111111" opacity="0.16"/>
  <rect x="320" y="100" width="8" height="10" rx="3" fill="#111111" opacity="0.13"/>

  <!-- Bottom baseline -->
  <line x1="73" y1="155" x2="328" y2="155" stroke="#111111" stroke-width="0.7" opacity="0.10"/>

  <!-- Footer label -->
  <text x="200" y="178" text-anchor="middle" font-family="Georgia, serif" font-size="9" fill="#717580" letter-spacing="2">AI Voice Agent</text>
</svg>
